mastitorrents.com
 
http://mastitorrents.com/forums/index.php

Ek Stree (2000) Hindi 18+ Hot Movie DVDRip-=MTR=-@Mastitorrents
 
http://thepiratebay.org/user/HDvideos/0/7

Format : AVI
Format/Info : Audio Video Interleave
File size : 697 MiB
Duration : 1h 44mn
Overall bit rate : 935 Kbps

Video
ID : 0
Format : MPEG-4 Visual
Format profile : Advanced Simple@L5
Format settings, BVOP : 2
Format settings, QPel : Yes
Format settings, GMC : No warppoints
Format settings, Matrix : Default (H.263)
Codec ID : XVID
Codec ID/Hint : XviD
Duration : 1h 44mn
Bit rate : 830 Kbps
Width : 624 pixels
Height : 320 pixels
Display aspect ratio : 1.950
Frame rate : 23.976 fps
Color space : YUV
Chroma subsampling : 4:2:0
Bit depth : 8 bits
Scan type : Progressive
Compression mode : Lossy
Bits/(Pixel*Frame) : 0.173
Stream size : 619 MiB (89%)
Writing library : XviD 1.2.1 (UTC 2008-12-04)

Audio
ID : 1
Format : MPEG Audio
Format version : Version 1
Format profile : Layer 3
Mode : Joint stereo
Mode extension : MS Stereo
Codec ID : 55
Codec ID/Hint : MP3
Duration : 1h 44mn
Bit rate mode : Constant
Bit rate : 96.0 Kbps
Channel(s) : 2 channels
Sampling rate : 32.0 KHz
Compression mode : Lossy
Stream size : 71.6 MiB (10%)
Alignment : Aligned on interleaves
Interleave, duration : 42 ms (1.00 video frame)
Writing library : LAME3.98r

PLOT:
A story of simple girl from a middle class family who had dreams of marrying a wealthy husband. Due to family pressure and social binding she is forced to marry a common middle class man whom she does not like mentally and physically. This results to avoiding her husband and dreaming about a life she always wanted.

Credits to Original Ripper

Recommended Player:VLC Player

facebook. com/MastiTorrents

facebook. com/MastiTorrentsReleasers